<svg xmlns="http://www.w3.org/2000/svg" viewBox="0 0 120 120">
  <defs><linearGradient id="g" x1="0%" y1="0%" x2="0%" y2="100%"><stop offset="0%" stop-color="#9CA3AF"/><stop offset="100%" stop-color="#6B7280"/></linearGradient></defs>
  <rect width="120" height="120" rx="26" fill="url(#g)"/>
  <path d="M60 44a16 16 0 1 0 0 32 16 16 0 0 0 0-32zm27.5 9.5-3.5-.6a22 22 0 0 0-2.2-5.3l2.1-2.9a2 2 0 0 0-.2-2.6l-5.8-5.8a2 2 0 0 0-2.6-.2l-2.9 2.1a22 22 0 0 0-5.3-2.2l-.6-3.5A2 2 0 0 0 64.5 30h-9a2 2 0 0 0-2 1.7l-.6 3.5a22 22 0 0 0-5.3 2.2l-2.9-2.1a2 2 0 0 0-2.6.2l-5.8 5.8a2 2 0 0 0-.2 2.6l2.1 2.9a22 22 0 0 0-2.2 5.3l-3.5.6A2 2 0 0 0 30 54.5v9a2 2 0 0 0 1.7 2l3.5.6a22 22 0 0 0 2.2 5.3l-2.1 2.9a2 2 0 0 0 .2 2.6l5.8 5.8a2 2 0 0 0 2.6.2l2.9-2.1a22 22 0 0 0 5.3 2.2l.6 3.5A2 2 0 0 0 55.5 90h9a2 2 0 0 0 2-1.7l.6-3.5a22 22 0 0 0 5.3-2.2l2.9 2.1a2 2 0 0 0 2.6-.2l5.8-5.8a2 2 0 0 0 .2-2.6l-2.1-2.9a22 22 0 0 0 2.2-5.3l3.5-.6A2 2 0 0 0 90 65.5v-9a2 2 0 0 0-2.5-2z" fill="white"/>
</svg>
